<svg width="155" height="155" viewBox="0 0 155 155" fill="none" xmlns="http://www.w3.org/2000/svg">
<circle cx="77.5" cy="77.5" r="77.5" fill="white"/>
<path d="M96.0993 107.67C92.5876 111.074 88.7534 110.537 85.0626 108.924C81.1568 107.276 77.5734 107.204 73.4526 108.924C68.2926 111.146 65.5693 110.501 62.4876 107.67C45.0009 89.6458 47.5809 62.1975 67.4326 61.1942C72.2701 61.445 75.6384 63.8458 78.4693 64.0608C82.6976 63.2008 86.7468 60.7283 91.2618 61.0508C96.6726 61.4808 100.758 63.6308 103.445 67.5008C92.2651 74.2017 94.9168 88.9292 105.165 93.05C103.123 98.425 100.471 103.764 96.0634 107.706L96.0993 107.67ZM78.1109 60.9792C77.5734 52.9883 84.0593 46.395 91.5126 45.75C92.5518 54.995 83.1276 61.875 78.1109 60.9792Z" fill="black"/>
</svg>
