<svg width="191" height="57" viewBox="0 0 191 57" fill="none" xmlns="http://www.w3.org/2000/svg">
<path d="M12.2383 27.9111L23.5283 34.1143L35.4883 27.8604V23.8477H45.9004V28.6484H40.0508C39.3783 31.5457 37.8474 34.2267 35.6045 36.3574L35.3115 36.6289C32.248 39.3984 28.1768 40.9482 23.9375 40.9482C19.6982 40.9482 15.6269 39.3983 12.5635 36.6289L12.2705 36.3574C10.0278 34.2267 8.49771 31.5456 7.8252 28.6484H2.09961V23.8477H12.2383V27.9111Z" fill="url(#paint0_linear_7591_12369)"/>
<circle cx="24" cy="24" r="21.6" stroke="url(#paint1_linear_7591_12369)" stroke-width="4.8"/>
<path d="M23.8496 13.3994C29.9524 13.3994 34.8994 18.3465 34.8994 24.4492C34.8994 30.552 29.9524 35.499 23.8496 35.499C17.7469 35.499 12.7998 30.552 12.7998 24.4492C12.7998 18.3465 17.7469 13.3994 23.8496 13.3994Z" stroke="url(#paint2_linear_7591_12369)" stroke-width="6.4"/>
<path d="M75.088 21.224H66.232C66.064 20.96 65.908 20.6 65.764 20.144C65.62 19.688 65.548 19.208 65.548 18.704C65.548 17.768 65.752 17.096 66.16 16.688C66.592 16.28 67.144 16.076 67.816 16.076H81.244C82.3 16.94 82.828 18.092 82.828 19.532C82.828 20.132 82.684 20.732 82.396 21.332C82.132 21.908 81.784 22.46 81.352 22.988L73.18 32.852H82.396C82.564 33.116 82.72 33.476 82.864 33.932C83.008 34.388 83.08 34.868 83.08 35.372C83.08 36.308 82.864 36.98 82.432 37.388C82.024 37.796 81.484 38 80.812 38H66.628C66.22 37.664 65.884 37.208 65.62 36.632C65.356 36.056 65.224 35.396 65.224 34.652C65.224 34.052 65.38 33.44 65.692 32.816C66.004 32.192 66.376 31.616 66.808 31.088L75.088 21.224ZM103.703 29.252C103.703 30.74 103.475 32.072 103.019 33.248C102.563 34.4 101.915 35.372 101.075 36.164C100.259 36.956 99.2747 37.556 98.1227 37.964C96.9707 38.372 95.6867 38.576 94.2707 38.576C92.8547 38.576 91.5707 38.36 90.4187 37.928C89.2667 37.496 88.2707 36.884 87.4307 36.092C86.6147 35.276 85.9787 34.292 85.5227 33.14C85.0667 31.988 84.8387 30.692 84.8387 29.252C84.8387 27.836 85.0667 26.552 85.5227 25.4C85.9787 24.248 86.6147 23.276 87.4307 22.484C88.2707 21.668 89.2667 21.044 90.4187 20.612C91.5707 20.18 92.8547 19.964 94.2707 19.964C95.6867 19.964 96.9707 20.192 98.1227 20.648C99.2747 21.08 100.259 21.704 101.075 22.52C101.915 23.312 102.563 24.284 103.019 25.436C103.475 26.588 103.703 27.86 103.703 29.252ZM91.1027 29.252C91.1027 30.716 91.3787 31.844 91.9307 32.636C92.5067 33.404 93.2987 33.788 94.3067 33.788C95.3147 33.788 96.0827 33.392 96.6107 32.6C97.1627 31.808 97.4387 30.692 97.4387 29.252C97.4387 27.812 97.1627 26.708 96.6107 25.94C96.0587 25.148 95.2787 24.752 94.2707 24.752C93.2627 24.752 92.4827 25.148 91.9307 25.94C91.3787 26.708 91.1027 27.812 91.1027 29.252ZM117.776 26.912C117.776 26.168 117.56 25.628 117.128 25.292C116.72 24.932 116.156 24.752 115.436 24.752C114.956 24.752 114.476 24.812 113.996 24.932C113.54 25.052 113.144 25.232 112.808 25.472V37.964C112.568 38.036 112.184 38.108 111.656 38.18C111.152 38.252 110.624 38.288 110.072 38.288C109.544 38.288 109.064 38.252 108.632 38.18C108.224 38.108 107.876 37.964 107.588 37.748C107.3 37.532 107.072 37.244 106.904 36.884C106.76 36.5 106.688 36.008 106.688 35.408V24.608C106.688 23.96 106.82 23.432 107.084 23.024C107.372 22.616 107.756 22.244 108.236 21.908C109.052 21.332 110.072 20.864 111.296 20.504C112.544 20.144 113.924 19.964 115.436 19.964C118.148 19.964 120.236 20.564 121.7 21.764C123.164 22.94 123.896 24.584 123.896 26.696V37.964C123.656 38.036 123.272 38.108 122.744 38.18C122.24 38.252 121.712 38.288 121.16 38.288C120.632 38.288 120.152 38.252 119.72 38.18C119.312 38.108 118.964 37.964 118.676 37.748C118.388 37.532 118.16 37.244 117.992 36.884C117.848 36.5 117.776 36.008 117.776 35.408V26.912ZM136.929 38.576C135.513 38.576 134.193 38.384 132.969 38C131.769 37.592 130.713 36.992 129.801 36.2C128.913 35.408 128.205 34.412 127.677 33.212C127.173 32.012 126.921 30.608 126.921 29C126.921 27.416 127.173 26.06 127.677 24.932C128.205 23.78 128.889 22.844 129.729 22.124C130.569 21.38 131.529 20.84 132.609 20.504C133.689 20.144 134.793 19.964 135.921 19.964C137.193 19.964 138.345 20.156 139.377 20.54C140.433 20.924 141.333 21.452 142.077 22.124C142.845 22.796 143.433 23.6 143.841 24.536C144.273 25.472 144.489 26.492 144.489 27.596C144.489 28.412 144.261 29.036 143.805 29.468C143.349 29.9 142.713 30.176 141.897 30.296L133.005 31.628C133.269 32.42 133.809 33.02 134.625 33.428C135.441 33.812 136.377 34.004 137.433 34.004C138.417 34.004 139.341 33.884 140.205 33.644C141.093 33.38 141.813 33.08 142.365 32.744C142.749 32.984 143.073 33.32 143.337 33.752C143.601 34.184 143.733 34.64 143.733 35.12C143.733 36.2 143.229 37.004 142.221 37.532C141.453 37.94 140.589 38.216 139.629 38.36C138.669 38.504 137.769 38.576 136.929 38.576ZM135.921 24.428C135.345 24.428 134.841 24.524 134.409 24.716C134.001 24.908 133.665 25.16 133.401 25.472C133.137 25.76 132.933 26.096 132.789 26.48C132.669 26.84 132.597 27.212 132.573 27.596L138.729 26.588C138.657 26.108 138.393 25.628 137.937 25.148C137.481 24.668 136.809 24.428 135.921 24.428ZM167.235 29.936C167.235 31.232 167.007 32.42 166.551 33.5C166.118 34.556 165.483 35.468 164.643 36.236C163.803 36.98 162.783 37.556 161.583 37.964C160.383 38.372 159.027 38.576 157.515 38.576C156.003 38.576 154.647 38.372 153.447 37.964C152.247 37.556 151.227 36.98 150.387 36.236C149.547 35.468 148.899 34.556 148.443 33.5C148.011 32.42 147.795 31.232 147.795 29.936V16.184C148.059 16.136 148.479 16.076 149.055 16.004C149.631 15.908 150.183 15.86 150.711 15.86C151.263 15.86 151.743 15.908 152.151 16.004C152.583 16.076 152.943 16.22 153.231 16.436C153.519 16.652 153.735 16.952 153.879 17.336C154.023 17.72 154.095 18.224 154.095 18.848V29.828C154.095 30.98 154.407 31.88 155.031 32.528C155.679 33.176 156.507 33.5 157.515 33.5C158.547 33.5 159.375 33.176 159.999 32.528C160.623 31.88 160.935 30.98 160.935 29.828V16.184C161.199 16.136 161.619 16.076 162.195 16.004C162.771 15.908 163.323 15.86 163.851 15.86C164.403 15.86 164.883 15.908 165.291 16.004C165.723 16.076 166.083 16.22 166.371 16.436C166.659 16.652 166.875 16.952 167.019 17.336C167.163 17.72 167.235 18.224 167.235 18.848V29.936ZM179.369 19.964C180.809 19.964 182.141 20.156 183.365 20.54C184.613 20.9 185.681 21.464 186.569 22.232C187.457 23 188.153 23.972 188.657 25.148C189.161 26.3 189.413 27.68 189.413 29.288C189.413 30.824 189.197 32.168 188.765 33.32C188.333 34.472 187.721 35.444 186.929 36.236C186.137 37.004 185.177 37.58 184.049 37.964C182.945 38.348 181.709 38.54 180.341 38.54C179.309 38.54 178.349 38.384 177.461 38.072V44.048C177.221 44.12 176.837 44.192 176.309 44.264C175.781 44.36 175.241 44.408 174.689 44.408C174.161 44.408 173.681 44.372 173.249 44.3C172.841 44.228 172.493 44.084 172.205 43.868C171.917 43.652 171.701 43.352 171.557 42.968C171.413 42.608 171.341 42.128 171.341 41.528V24.248C171.341 23.6 171.473 23.072 171.737 22.664C172.025 22.256 172.409 21.884 172.889 21.548C173.633 21.068 174.557 20.684 175.661 20.396C176.765 20.108 178.001 19.964 179.369 19.964ZM179.441 33.716C181.913 33.716 183.149 32.24 183.149 29.288C183.149 27.752 182.837 26.612 182.213 25.868C181.613 25.124 180.737 24.752 179.585 24.752C179.129 24.752 178.721 24.812 178.361 24.932C178.001 25.028 177.689 25.148 177.425 25.292V33.212C177.713 33.356 178.025 33.476 178.361 33.572C178.697 33.668 179.057 33.716 179.441 33.716Z" fill="url(#paint3_linear_7591_12369)"/>
<defs>
<linearGradient id="paint0_linear_7591_12369" x1="-19.8182" y1="34.4749" x2="-6.70453" y2="65.5547" gradientUnits="userSpaceOnUse">
<stop stop-color="#43CEA2"/>
<stop offset="0.931667" stop-color="#185A9D"/>
</linearGradient>
<linearGradient id="paint1_linear_7591_12369" x1="-24.0191" y1="29.8298" x2="27.2113" y2="77.2334" gradientUnits="userSpaceOnUse">
<stop stop-color="#43CEA2"/>
<stop offset="0.931667" stop-color="#185A9D"/>
</linearGradient>
<linearGradient id="paint2_linear_7591_12369" x1="-4.66171" y1="27.9107" x2="25.7563" y2="56.0566" gradientUnits="userSpaceOnUse">
<stop stop-color="#43CEA2"/>
<stop offset="0.931667" stop-color="#185A9D"/>
</linearGradient>
<linearGradient id="paint3_linear_7591_12369" x1="0.449579" y1="35.4229" x2="48.3701" y2="134.218" gradientUnits="userSpaceOnUse">
<stop stop-color="#43CEA2"/>
<stop offset="0.931667" stop-color="#185A9D"/>
</linearGradient>
</defs>
</svg>
