<svg width="155" height="155" viewBox="0 0 155 155" fill="none" xmlns="http://www.w3.org/2000/svg">
<circle cx="77.5" cy="77.5" r="77.5" fill="white"/>
<path d="M48.0341 47.3052L79.3524 78.018L48.267 109.014C47.7584 108.352 47.3636 107.609 47.0988 106.817C46.9619 105.921 46.9619 105.008 47.0988 104.112V51.3651C47.0056 49.9497 47.3317 48.5343 48.0305 47.3052M92.8436 64.6235L82.6204 74.75L51.6747 44.3167C52.6781 43.9691 53.7531 43.8724 54.803 44.0372C56.4513 44.4887 58.0244 45.1839 59.4685 46.0905L87.4758 61.5884C89.2961 62.5666 91.0699 63.5951 92.8436 64.6235ZM82.624 81.3326L92.7971 91.3229L85.4226 95.4294L62.9228 107.935C61.0595 108.964 59.189 109.945 57.3686 111.067C56.5897 111.552 55.7163 111.865 54.8067 111.986C53.8971 112.106 52.9723 112.031 52.094 111.766L82.624 81.3326ZM108.997 78.018C109.023 79.271 108.707 80.5073 108.082 81.5935C107.456 82.6797 106.546 83.5745 105.45 84.1813L97.0433 88.8468L85.9816 78.018L97.0899 67.0028C99.9386 68.5902 102.741 70.1776 105.539 71.6719C106.656 72.2957 107.572 73.2228 108.184 74.3458C108.795 75.4688 109.079 76.742 108.997 78.018Z" fill="black"/>
</svg>
