<svg width="155" height="155" viewBox="0 0 155 155" fill="none" xmlns="http://www.w3.org/2000/svg">
<g clip-path="url(#clip0_9241_13304)">
<path d="M77.5 155C120.302 155 155 120.302 155 77.5C155 34.6979 120.302 0 77.5 0C34.6979 0 0 34.6979 0 77.5C0 120.302 34.6979 155 77.5 155Z" fill="white"/>
<path d="M93.7971 67.9514C86.3623 63.793 74.4293 57.1156 55.9202 46.752C54.6723 45.9279 53.2366 45.8199 51.9961 46.2397L83.7524 77.9961L93.7971 67.9514Z" fill="#32BBFF"/>
<path d="M51.9969 46.2422C51.7644 46.3209 51.5382 46.4159 51.3218 46.5307C49.9519 47.2717 48.9453 48.6976 48.9453 50.5009V105.496C48.9453 107.299 49.9518 108.725 51.3218 109.466C51.5378 109.581 51.7639 109.676 51.9962 109.755L83.7533 77.9985L51.9969 46.2422Z" fill="#32BBFF"/>
<path d="M83.7532 77.9961L51.9961 109.753C53.237 110.176 54.6727 110.076 55.921 109.24C73.8708 99.1889 85.6693 92.5906 93.1901 88.3969C93.3994 88.2792 93.6046 88.1642 93.8073 88.0504L83.7532 77.9961Z" fill="#32BBFF"/>
<path d="M48.9453 77.9961V105.494C48.9453 107.297 49.9518 108.723 51.3218 109.464C51.5378 109.578 51.7639 109.674 51.9962 109.753L83.7533 77.9961H48.9453Z" fill="#2C9FD9"/>
<path d="M55.9196 46.7535C54.4377 45.775 52.6902 45.8029 51.3203 46.5299L83.2698 78.4794L93.7963 67.9529C86.3616 63.7945 74.4286 57.1171 55.9196 46.7535Z" fill="#29CC5E"/>
<path d="M83.27 77.5156L51.3203 109.465C52.6903 110.192 54.4377 110.234 55.9196 109.241C73.8694 99.1902 85.6679 92.5919 93.1886 88.3981C93.398 88.2805 93.6031 88.1655 93.8059 88.0516L83.27 77.5156Z" fill="#D93F21"/>
<path d="M107.057 77.9959C107.057 76.4721 106.289 74.9344 104.765 74.0816C104.765 74.0816 101.915 72.4915 93.1795 67.6055L82.7891 77.9959L93.1896 88.3965C101.829 83.5456 104.765 81.91 104.765 81.91C106.289 81.0574 107.057 79.5196 107.057 77.9959Z" fill="#FFD500"/>
<path d="M104.765 81.9104C106.289 81.0576 107.057 79.5198 107.057 77.9961H82.7891L93.1896 88.3967C101.829 83.546 104.765 81.9104 104.765 81.9104Z" fill="#FFAA00"/>
</g>
<defs>
<clipPath id="clip0_9241_13304">
<rect width="155" height="155" fill="white"/>
</clipPath>
</defs>
</svg>
